# Blender3D v249 OBJ File: 
# www.blender3d.org
mtllib default2.mtl
v 1.000000 -1.000000 2.000000
v 1.000000 -1.000000 4.000000
v -1.000000 -1.000000 4.000000
v -1.000000 -1.000000 2.000000
v 1.000000 1.000000 2.000000
v 0.999999 1.000000 4.000000
v -1.000000 1.000000 4.000000
v -1.000000 1.000000 2.000000
vn 0.000000 0.000000 -1.000000
vn -1.000000 -0.000000 -0.000000
vn -0.000000 -0.000000 1.000000
vn 1.000000 -0.000000 0.000000
vn 1.000000 0.000000 0.000001
vn 0.000000 1.000000 0.000000
vn -0.000000 -1.000000 0.000000
usemtl default
s off
f 5//1 1//1 4//1
f 5//1 4//1 8//1
f 3//2 7//2 8//2
f 3//2 8//2 4//2
f 2//3 6//3 3//3
f 6//3 7//3 3//3
f 1//4 5//4 2//4
f 5//5 6//5 2//5
f 5//6 8//6 6//6
f 8//6 7//6 6//6
f 1//7 2//7 3//7
f 1//7 3//7 4//7
v 1.000000 -1.000000 -4.000000
v 1.000000 -1.000000 -2.000000
v -1.000000 -1.000000 -2.000000
v -1.000000 -1.000000 -4.000000
v 1.000000 1.000000 -4.000000
v 0.999999 1.000000 -1.999999
v -1.000000 1.000000 -2.000000
v -1.000000 1.000000 -4.000000
vt 0.000000 0.000000
vt 1.000000 0.000000
vt 1.000000 1.000000
vt 0.000000 1.000000
vn -0.000001 0.000000 1.000000
usemtl default
s off
f 13/1/1 9/2/1 12/3/1
f 13/1/1 12/3/1 16/4/1
f 11/1/2 15/2/2 16/3/2
f 11/1/2 16/3/2 12/4/2
f 10/1/3 14/2/3 11/4/3
f 14/2/8 15/3/8 11/4/8
f 9/1/4 13/2/4 10/4/4
f 13/2/5 14/3/5 10/4/5
f 13/1/6 16/2/6 14/4/6
f 16/2/6 15/3/6 14/4/6
f 9/1/7 10/2/7 11/3/7
f 9/1/7 11/3/7 12/4/7
v 1.000000 -4.000000 -1.000000
v 1.000000 -4.000000 1.000000
v -1.000000 -4.000000 1.000000
v -1.000000 -4.000000 -1.000000
v 1.000000 -2.000000 -0.999999
v 0.999999 -2.000000 1.000001
v -1.000000 -2.000000 1.000000
v -1.000000 -2.000000 -1.000000
usemtl default
s off
f 21//1 17//1 20//1
f 21//1 20//1 24//1
f 19//2 23//2 24//2
f 19//2 24//2 20//2
f 18//3 22//3 19//3
f 22//8 23//8 19//8
f 17//4 21//4 18//4
f 21//5 22//5 18//5
f 21//6 24//6 22//6
f 24//6 23//6 22//6
f 17//7 18//7 19//7
f 17//7 19//7 20//7
v -2.000000 -1.000000 -1.000000
v -2.000000 -1.000000 1.000000
v -4.000000 -1.000000 1.000000
v -4.000000 -1.000000 -1.000000
v -2.000000 1.000000 -1.000000
v -2.000001 1.000000 1.000001
v -4.000000 1.000000 1.000000
v -4.000000 1.000000 -1.000000
usemtl default
s off
f 29//1 25//1 28//1
f 29//1 28//1 32//1
f 27//2 31//2 32//2
f 27//2 32//2 28//2
f 26//3 30//3 27//3
f 30//8 31//8 27//8
f 25//4 29//4 26//4
f 29//5 30//5 26//5
f 29//6 32//6 30//6
f 32//6 31//6 30//6
f 25//7 26//7 27//7
f 25//7 27//7 28//7
v 1.000000 2.000000 -1.000000
v 1.000000 2.000000 1.000000
v -1.000000 2.000000 1.000000
v -1.000000 2.000000 -1.000000
v 1.000000 4.000000 -1.000000
v 0.999999 4.000000 1.000000
v -1.000000 4.000000 0.999999
v -1.000000 4.000000 -1.000000
usemtl default
s off
f 37//1 33//1 36//1
f 37//1 36//1 40//1
f 35//2 39//2 40//2
f 35//2 40//2 36//2
f 34//3 38//3 35//3
f 38//8 39//8 35//8
f 33//4 37//4 34//4
f 37//5 38//5 34//5
f 37//6 40//6 38//6
f 40//6 39//6 38//6
f 33//7 34//7 35//7
f 33//7 35//7 36//7
v 4.000000 -1.000000 -1.000000
v 4.000000 -1.000000 1.000000
v 2.000000 -1.000000 1.000000
v 2.000000 -1.000000 -1.000000
v 4.000000 1.000000 -1.000000
v 3.999999 1.000000 1.000001
v 2.000000 1.000000 1.000000
v 2.000000 1.000000 -1.000000
usemtl default
s off
f 45//1 41//1 44//1
f 45//1 44//1 48//1
f 43//2 47//2 48//2
f 43//2 48//2 44//2
f 42//3 46//3 43//3
f 46//8 47//8 43//8
f 41//4 45//4 42//4
f 45//5 46//5 42//5
f 45//6 48//6 46//6
f 48//6 47//6 46//6
f 41//7 42//7 43//7
f 41//7 43//7 44//7
v 1.000000 -1.000000 -1.000000
v 1.000000 -1.000000 1.000000
v -1.000000 -1.000000 1.000000
v -1.000000 -1.000000 -1.000000
v 1.000000 1.000000 -1.000000
v 0.999999 1.000000 1.000001
v -1.000000 1.000000 1.000000
v -1.000000 1.000000 -1.000000
usemtl default
s off
f 53//1 49//1 52//1
f 53//1 52//1 56//1
f 51//2 55//2 56//2
f 51//2 56//2 52//2
f 50//3 54//3 51//3
f 54//8 55//8 51//8
f 49//4 53//4 50//4
f 53//5 54//5 50//5
f 53//6 56//6 54//6
f 56//6 55//6 54//6
f 49//7 50//7 51//7
f 49//7 51//7 52//7
